<?xml version="1.0" encoding="UTF-8"?>
<!-- Created with Inkscape (http://www.inkscape.org/) -->
<svg width="512" height="512" enable-background="new" version="1.1" viewBox="0 0 135.47 135.47" xmlns="http://www.w3.org/2000/svg" xmlns:cc="http://creativecommons.org/ns#" xmlns:dc="http://purl.org/dc/elements/1.1/" xmlns:rdf="http://www.w3.org/1999/02/22-rdf-syntax-ns#">
 <metadata>
  <rdf:RDF>
   <cc:Work rdf:about="">
    <dc:format>image/svg+xml</dc:format>
    <dc:type rdf:resource="http://purl.org/dc/dcmitype/StillImage"/>
    <dc:title/>
   </cc:Work>
  </rdf:RDF>
 </metadata>
 <g transform="translate(0 -161.53)">
  <path d="m8.4667 195.4-1e-7 -25.4 118.53 29.633v25.4l-118.53 29.633 1e-7 -25.4 67.733-16.933z"/>
  <path d="m127 258.9s-19.36-8.4667-29.633-8.4667-29.633 8.4667-29.633 8.4667-19.36 8.4667-29.633 8.4667c-10.273 0-29.633-8.4667-29.633-8.4667v25.4s19.36 8.4667 29.633 8.4667c10.273 0 29.633-8.4667 29.633-8.4667s19.36-8.4667 29.633-8.4667 29.633 8.4667 29.633 8.4667z"/>
 </g>
 <g display="none">
  <path d="m67.733 2.1167-21.167 38.1 12.7 2.1167-6.35 91.017h29.633l-6.35-91.017 12.7-2.1167z" fill="#7cb326"/>
 </g>
 <g transform="translate(0 -161.53)" display="none">
  <path d="m127 199.63v25.4l-118.53 29.633 1e-7 -25.4z"/>
 </g>
 <g transform="translate(0 -161.53)" display="none">
  <path transform="matrix(.26458 0 0 .26458 0 161.53)" d="m256 16-32 64-192-48v96l152.73 30.545-8.7266 17.455h48l-3.2812 32.82-188.72 47.18v96l178.87-44.719-8.0625 80.623c-20.373 6.5048-42.585 12.096-58.809 12.096-38.827 0-112-32-112-32v96s73.173 32 112 32c13.623 0 31.471-3.9443 48.906-9.0586l-0.90625 9.0586h128l-5.3613-53.609c18.81-5.7471 38.575-10.391 53.361-10.391 38.827 0 112 32 112 32v-96s-73.173-32-112-32c-17.256 0-41.28 6.3244-62.666 13.348l-6.4062-64.08 181.07-45.268v-96l-182.86-45.715zm32.326 163.27 28.119 5.623-26.885 6.7207z" fill="none" stroke="#646464" stroke-linecap="round" stroke-linejoin="round" stroke-width="2"/>
 </g>
</svg>
